<?xml version="1.0" standalone="no"?>
<!DOCTYPE svg PUBLIC "-//W3C//DTD SVG 20010904//EN"
 "http://www.w3.org/TR/2001/REC-SVG-20010904/DTD/svg10.dtd">
<svg version="1.0" xmlns="http://www.w3.org/2000/svg"
 width="1075.000000pt" height="1075.000000pt" viewBox="0 0 1075.000000 1075.000000"
 preserveAspectRatio="xMidYMid meet">
<metadata>
Created by potrace 1.11, written by Peter Selinger 2001-2013
</metadata>
<g transform="translate(0.000000,1075.000000) scale(0.100000,-0.100000)"
fill="#000000" stroke="none">
<path d="M6306 10523 c1 -126 2 -232 3 -238 1 -7 544 -10 1611 -9 l1610 2 0
-339 0 -338 249 1 248 1 0 574 0 573 -1861 0 -1861 0 1 -227z"/>
<path d="M1692 5347 l3 -4352 1005 0 1005 0 0 1421 0 1421 74 84 c41 46 80 89
85 94 6 6 58 64 115 130 58 66 112 127 120 136 9 9 37 40 62 70 26 30 57 66
70 80 13 14 51 56 84 94 33 37 65 73 70 79 6 6 39 45 75 86 36 41 70 79 76 85
6 5 62 69 125 140 62 72 116 132 119 135 3 3 36 41 75 85 38 44 72 82 75 85 3
3 34 39 70 80 36 41 72 82 80 90 8 8 80 89 160 180 79 91 147 167 150 170 3 3
36 41 75 85 38 44 72 82 75 85 8 8 151 169 235 265 43 50 106 122 140 160 35
39 122 138 195 220 186 211 244 276 346 390 49 56 114 129 144 164 30 35 66
76 80 91 14 15 48 53 75 85 28 32 57 65 65 74 19 19 179 201 400 451 89 102
181 206 204 231 22 25 68 76 101 114 33 38 65 73 70 79 6 6 59 67 120 136 60
69 124 141 141 160 17 19 105 118 195 220 219 249 389 440 464 525 34 39 77
88 96 110 19 22 37 42 40 45 3 3 43 48 89 100 46 52 96 108 111 124 15 17 26
33 23 37 -2 4 -561 7 -1242 7 -1137 0 -1238 -1 -1252 -16 -20 -22 -151 -173
-209 -241 -25 -29 -55 -63 -66 -75 -11 -11 -58 -66 -105 -121 -47 -55 -92
-106 -100 -115 -8 -9 -35 -40 -60 -69 -50 -60 -49 -59 -105 -121 -22 -25 -60
-69 -85 -99 -25 -30 -52 -61 -60 -70 -9 -9 -43 -47 -75 -86 -33 -38 -69 -79
-80 -91 -11 -11 -31 -34 -44 -50 -14 -16 -81 -94 -150 -174 -69 -80 -137 -158
-151 -174 -14 -17 -41 -48 -61 -70 -20 -23 -45 -52 -57 -66 -27 -33 -45 -53
-117 -136 -33 -37 -92 -104 -130 -149 -39 -44 -111 -127 -160 -185 -50 -58
-99 -114 -110 -126 -11 -11 -42 -47 -70 -79 -48 -57 -240 -279 -294 -340 -42
-49 -154 -177 -178 -205 -12 -14 -33 -38 -48 -55 -14 -16 -54 -63 -88 -102
-34 -40 -64 -73 -67 -73 -3 0 -5 694 -5 1543 l0 1542 -1008 2 -1007 1 2 -4351z"/>
<path d="M6073 5816 c-7 -12 -88 -105 -152 -174 -14 -16 -56 -62 -92 -103 -36
-41 -110 -123 -164 -184 -145 -163 -154 -173 -230 -260 -38 -44 -72 -82 -75
-85 -3 -3 -39 -43 -80 -90 -41 -47 -78 -87 -81 -90 -3 -3 -97 -108 -209 -235
-112 -126 -212 -240 -222 -251 -19 -21 -18 -23 108 -240 70 -121 177 -307 239
-414 62 -107 154 -267 205 -355 51 -88 102 -176 113 -195 11 -19 62 -109 115
-200 52 -91 146 -253 207 -360 62 -107 175 -303 252 -435 76 -132 142 -247
146 -255 4 -8 13 -24 20 -35 19 -31 173 -296 194 -335 11 -19 71 -123 133
-230 62 -107 121 -209 131 -226 9 -17 23 -40 29 -51 13 -19 29 -20 1197 -20
949 0 1183 3 1179 13 -3 7 -103 173 -223 368 -120 196 -225 368 -234 384 -9
15 -77 126 -151 247 -74 121 -150 245 -168 275 -18 30 -43 71 -55 90 -25 39
-231 374 -256 418 -22 37 -493 807 -557 910 -29 46 -52 86 -52 88 0 3 -9 17
-19 32 -11 15 -137 221 -282 457 -322 527 -430 704 -500 818 -30 48 -61 100
-70 115 -9 15 -74 122 -145 237 -71 116 -133 218 -139 227 -43 73 -97 158
-100 158 -2 0 -8 -6 -12 -14z"/>
<path d="M590 498 l0 -498 4779 0 4780 0 -1 235 c0 233 0 235 -22 236 -11 0
-2049 1 -4528 1 -2480 1 -4509 4 -4509 7 -1 3 -2 121 -3 261 l-1 255 -248 0
-247 1 0 -498z"/>
</g>
</svg>
