<?xml version="1.0" standalone="no"?>
<!DOCTYPE svg PUBLIC "-//W3C//DTD SVG 20010904//EN"
 "http://www.w3.org/TR/2001/REC-SVG-20010904/DTD/svg10.dtd">
<svg version="1.0" xmlns="http://www.w3.org/2000/svg"
 width="1065.000000pt" height="1065.000000pt" viewBox="0 0 1065.000000 1065.000000"
 preserveAspectRatio="xMidYMid meet">
<metadata>
Created by potrace 1.11, written by Peter Selinger 2001-2013
</metadata>
<g transform="translate(0.000000,1065.000000) scale(0.100000,-0.100000)"
fill="#000000" stroke="none">
<path d="M6260 10415 l0 -235 1595 0 1595 0 0 -335 0 -335 245 0 245 0 0 570
0 570 -1840 0 -1840 0 0 -235z"/>
<path d="M1680 5290 l0 -4310 995 0 995 0 0 1404 0 1404 2565 2902 c1411 1595
2565 2903 2565 2905 0 3 -555 5 -1232 5 l-1233 0 -1318 -1519 c-725 -835
-1324 -1524 -1332 -1531 -13 -11 -15 170 -15 1519 l0 1531 -995 0 -995 0 0
-4310z"/>
<path d="M5380 5033 c-360 -405 -656 -743 -658 -750 -3 -12 1866 -3262 1892
-3291 9 -9 254 -12 1183 -10 l1171 3 -1458 2383 c-801 1311 -1461 2387 -1466
2392 -6 6 -281 -296 -664 -727z"/>
<path d="M590 490 l0 -490 4735 0 4735 0 0 230 0 230 -4490 0 -4490 0 0 260 0
260 -245 0 -245 0 0 -490z"/>
</g>
</svg>
